<svg width="277" height="115" viewBox="0 0 277 115" fill="none" xmlns="http://www.w3.org/2000/svg">
<path d="M0 31C0 18.8497 9.84974 9 22 9H28V106H0V31Z" fill="#18181B"/>
<path d="M249 9C264.464 9 277 21.536 277 37V78C277 93.464 264.464 106 249 106V9Z" fill="#18181B"/>
<path d="M44.3359 42.4727H60.6445C62.6367 42.4727 64.3685 42.6875 65.8398 43.1172C67.3242 43.5339 68.5547 44.1133 69.5312 44.8555C70.5078 45.5977 71.2305 46.4831 71.6992 47.5117C72.181 48.5273 72.4219 49.6276 72.4219 50.8125C72.4219 52.7526 71.8099 54.4518 70.5859 55.9102C71.9922 56.7435 73.0404 57.8242 73.7305 59.1523C74.4206 60.4805 74.7656 61.9909 74.7656 63.6836C74.7656 65.1029 74.5247 66.3854 74.043 67.5312C73.5742 68.6771 72.8516 69.6602 71.875 70.4805C70.9115 71.2878 69.6875 71.9128 68.2031 72.3555C66.7318 72.7852 64.9935 73 62.9883 73H44.3359V42.4727ZM63.0273 54.1914C63.5612 54.1914 64.082 54.2109 64.5898 54.25C65.4622 53.4167 65.8984 52.4661 65.8984 51.3984C65.8984 50.2917 65.4622 49.4388 64.5898 48.8398C63.7305 48.2279 62.4674 47.9219 60.8008 47.9219H50.5273V54.1914H63.0273ZM63.1445 67.6094C64.8112 67.6094 66.0742 67.2513 66.9336 66.5352C67.806 65.819 68.2422 64.8099 68.2422 63.5078C68.2422 62.2057 67.806 61.1901 66.9336 60.4609C66.0742 59.7318 64.8112 59.3672 63.1445 59.3672H50.5273V67.6094H63.1445ZM82.332 49.9336H88.0938V61.1836C88.0938 62.2513 88.2109 63.2279 88.4453 64.1133C88.6797 64.9857 89.0768 65.7344 89.6367 66.3594C90.2096 66.9844 90.9648 67.4727 91.9023 67.8242C92.8529 68.1628 94.0312 68.332 95.4375 68.332C96.1016 68.332 96.7721 68.2604 97.4492 68.1172C98.1393 67.974 98.7969 67.7786 99.4219 67.5312C100.047 67.2708 100.626 66.9648 101.16 66.6133C101.707 66.2617 102.176 65.8776 102.566 65.4609V49.9336H108.348V73H102.566V71.0273C101.147 71.8737 99.7214 72.4792 98.2891 72.8438C96.8568 73.2083 95.4961 73.3906 94.207 73.3906C92.0977 73.3906 90.2878 73.1367 88.7773 72.6289C87.2799 72.1211 86.0495 71.3854 85.0859 70.4219C84.1354 69.4453 83.4388 68.2539 82.9961 66.8477C82.5534 65.4284 82.332 63.8138 82.332 62.0039V49.9336ZM117.691 49.9531H123.473V51.9062C125.009 51.0339 126.474 50.4219 127.867 50.0703C129.273 49.7188 130.647 49.543 131.988 49.543C133.746 49.543 135.374 49.8034 136.871 50.3242C138.368 50.832 139.664 51.5938 140.758 52.6094C141.852 53.625 142.704 54.8945 143.316 56.418C143.941 57.9284 144.254 59.6797 144.254 61.6719V73H138.492V62.6094C138.492 61.3464 138.31 60.2201 137.945 59.2305C137.594 58.2279 137.079 57.388 136.402 56.7109C135.738 56.0208 134.924 55.5 133.961 55.1484C133.01 54.7839 131.943 54.6016 130.758 54.6016C130.133 54.6016 129.488 54.6667 128.824 54.7969C128.173 54.9271 127.529 55.1159 126.891 55.3633C126.266 55.5977 125.66 55.8971 125.074 56.2617C124.488 56.6133 123.954 57.0169 123.473 57.4727V73H117.691V49.9531ZM153.52 49.9531H159.301V51.9062C160.746 51.0208 162.152 50.4089 163.52 50.0703C164.9 49.7188 166.247 49.543 167.562 49.543C169.398 49.543 171.085 49.8359 172.621 50.4219C174.158 51.0078 175.473 51.8932 176.566 53.0781C177.413 52.4271 178.246 51.8802 179.066 51.4375C179.887 50.9818 180.707 50.6172 181.527 50.3438C182.348 50.0573 183.181 49.8555 184.027 49.7383C184.874 49.6081 185.746 49.543 186.645 49.543C188.533 49.543 190.245 49.8034 191.781 50.3242C193.318 50.832 194.626 51.5938 195.707 52.6094C196.801 53.625 197.641 54.8945 198.227 56.418C198.826 57.9284 199.125 59.6797 199.125 61.6719V73H193.363V62.6094C193.363 61.3464 193.181 60.2201 192.816 59.2305C192.465 58.2279 191.964 57.388 191.312 56.7109C190.674 56.0208 189.906 55.5 189.008 55.1484C188.122 54.7839 187.146 54.6016 186.078 54.6016C185.492 54.6016 184.893 54.6602 184.281 54.7773C183.669 54.8815 183.07 55.0508 182.484 55.2852C181.911 55.5195 181.371 55.819 180.863 56.1836C180.355 56.5352 179.913 56.9518 179.535 57.4336V73H173.773V62.6094C173.773 61.3464 173.591 60.2201 173.227 59.2305C172.875 58.2279 172.374 57.388 171.723 56.7109C171.085 56.0208 170.31 55.5 169.398 55.1484C168.5 54.7839 167.51 54.6016 166.43 54.6016C165.766 54.6016 165.095 54.6732 164.418 54.8164C163.754 54.9466 163.109 55.1354 162.484 55.3828C161.872 55.6302 161.293 55.9297 160.746 56.2812C160.212 56.6328 159.73 57.0299 159.301 57.4727V73H153.52V49.9531ZM207.023 61.4766C207.023 59.8229 207.355 58.2734 208.02 56.8281C208.697 55.3828 209.654 54.1198 210.891 53.0391C212.141 51.9583 213.645 51.1055 215.402 50.4805C217.173 49.8555 219.159 49.543 221.359 49.543C223.56 49.543 225.539 49.8555 227.297 50.4805C229.068 51.1055 230.572 51.9583 231.809 53.0391C233.059 54.1198 234.016 55.3828 234.68 56.8281C235.357 58.2734 235.695 59.8229 235.695 61.4766C235.695 63.1302 235.357 64.6797 234.68 66.125C234.016 67.5703 233.059 68.8333 231.809 69.9141C230.572 70.9948 229.068 71.8477 227.297 72.4727C225.539 73.0977 223.56 73.4102 221.359 73.4102C219.159 73.4102 217.173 73.0977 215.402 72.4727C213.645 71.8477 212.141 70.9948 210.891 69.9141C209.654 68.8333 208.697 67.5703 208.02 66.125C207.355 64.6797 207.023 63.1302 207.023 61.4766ZM213.098 61.4766C213.098 62.401 213.28 63.2799 213.645 64.1133C214.022 64.9336 214.562 65.6628 215.266 66.3008C215.982 66.9258 216.848 67.4271 217.863 67.8047C218.892 68.1693 220.057 68.3516 221.359 68.3516C222.661 68.3516 223.82 68.1693 224.836 67.8047C225.865 67.4271 226.73 66.9258 227.434 66.3008C228.15 65.6628 228.69 64.9336 229.055 64.1133C229.432 63.2799 229.621 62.401 229.621 61.4766C229.621 60.5521 229.432 59.6732 229.055 58.8398C228.69 58.0065 228.15 57.2773 227.434 56.6523C226.73 56.0143 225.865 55.513 224.836 55.1484C223.82 54.7708 222.661 54.582 221.359 54.582C220.057 54.582 218.892 54.7708 217.863 55.1484C216.848 55.513 215.982 56.0143 215.266 56.6523C214.562 57.2773 214.022 58.0065 213.645 58.8398C213.28 59.6732 213.098 60.5521 213.098 61.4766Z" fill="black"/>
</svg>
