<svg width="512" height="512" viewBox="0 0 512 512" fill="none" xmlns="http://www.w3.org/2000/svg">
<rect width="512" height="512" fill="white"/>
<path d="M92 195C92 182.85 101.85 173 114 173H143V318H92V195Z" fill="#18181B"/>
<path d="M165 173V173C191.022 173 206.208 202.361 191.17 223.598L176.708 244.02L192.144 266.726C206.957 288.517 191.349 318 165 318V318C165 318 196.194 304.314 189.142 286.189C182.09 268.064 166.094 259.01 176.708 244.02C215.213 189.645 165 173 165 173Z" fill="#18181B"/>
<path d="M224.576 319.224C220.016 319.224 216.512 317.76 214.064 314.832C211.616 311.856 210.392 307.392 210.392 301.44V278.544H221.912V302.016C221.912 304.128 222.512 305.808 223.712 307.056C224.912 308.304 226.52 308.928 228.536 308.928C230.6 308.928 232.28 308.28 233.576 306.984C234.872 305.688 235.52 303.936 235.52 301.728V278.544H247.04V318H237.896V301.368H238.688C238.688 305.352 238.16 308.688 237.104 311.376C236.096 314.016 234.584 315.984 232.568 317.28C230.552 318.576 228.056 319.224 225.08 319.224H224.576ZM257.662 318V278.544H266.806V295.464H266.158C266.158 291.432 266.662 288.072 267.67 285.384C268.726 282.696 270.31 280.68 272.422 279.336C274.534 277.992 277.102 277.32 280.126 277.32H280.63C285.238 277.32 288.742 278.832 291.142 281.856C293.59 284.832 294.814 289.368 294.814 295.464V318H283.294V294.816C283.294 292.704 282.67 290.976 281.422 289.632C280.174 288.288 278.494 287.616 276.382 287.616C274.222 287.616 272.47 288.312 271.126 289.704C269.83 291.048 269.182 292.824 269.182 295.032V318H257.662ZM304.631 318V278.544H313.775V295.536H313.127C313.127 291.504 313.631 288.144 314.639 285.456C315.647 282.768 317.159 280.752 319.175 279.408C321.191 278.016 323.663 277.32 326.591 277.32H327.095C330.071 277.32 332.543 278.016 334.511 279.408C336.527 280.752 338.039 282.768 339.047 285.456C340.103 288.144 340.631 291.504 340.631 295.536H337.823C337.823 291.504 338.327 288.144 339.335 285.456C340.391 282.768 341.927 280.752 343.943 279.408C345.959 278.016 348.431 277.32 351.359 277.32H351.863C354.839 277.32 357.335 278.016 359.351 279.408C361.415 280.752 362.975 282.768 364.031 285.456C365.087 288.144 365.615 291.504 365.615 295.536V318H354.095V294.888C354.095 292.728 353.519 290.976 352.367 289.632C351.263 288.288 349.679 287.616 347.615 287.616C345.551 287.616 343.919 288.312 342.719 289.704C341.519 291.048 340.919 292.848 340.919 295.104V318H329.327V294.888C329.327 292.728 328.751 290.976 327.599 289.632C326.495 288.288 324.935 287.616 322.919 287.616C320.807 287.616 319.151 288.312 317.951 289.704C316.751 291.048 316.151 292.848 316.151 295.104V318H304.631ZM394.66 319.368C391.204 319.368 388.132 318.84 385.444 317.784C382.756 316.68 380.476 315.192 378.604 313.32C376.78 311.448 375.388 309.312 374.428 306.912C373.468 304.464 372.988 301.896 372.988 299.208V297.552C372.988 294.816 373.468 292.224 374.428 289.776C375.436 287.28 376.876 285.096 378.748 283.224C380.668 281.352 382.972 279.888 385.66 278.832C388.348 277.728 391.348 277.176 394.66 277.176C398.068 277.176 401.092 277.728 403.732 278.832C406.42 279.888 408.7 281.352 410.572 283.224C412.444 285.096 413.884 287.28 414.892 289.776C415.9 292.224 416.404 294.816 416.404 297.552V299.208C416.404 301.896 415.924 304.464 414.964 306.912C414.004 309.312 412.588 311.448 410.716 313.32C408.892 315.192 406.636 316.68 403.948 317.784C401.26 318.84 398.164 319.368 394.66 319.368ZM394.66 309.648C396.916 309.648 398.788 309.168 400.276 308.208C401.764 307.248 402.892 305.904 403.66 304.176C404.476 302.448 404.884 300.528 404.884 298.416C404.884 296.16 404.476 294.192 403.66 292.512C402.844 290.784 401.668 289.416 400.132 288.408C398.644 287.4 396.82 286.896 394.66 286.896C392.548 286.896 390.724 287.4 389.188 288.408C387.652 289.416 386.476 290.784 385.66 292.512C384.892 294.192 384.508 296.16 384.508 298.416C384.508 300.528 384.892 302.448 385.66 304.176C386.428 305.904 387.58 307.248 389.116 308.208C390.652 309.168 392.5 309.648 394.66 309.648Z" fill="#1E1E1E"/>
</svg>
